<?xml version="1.0" encoding="UTF-8"?>
<svg version="1.1" xmlns="http://www.w3.org/2000/svg" width="1254" height="1254">
<path d="M0 0 C413.82 0 827.64 0 1254 0 C1254 413.82 1254 827.64 1254 1254 C840.18 1254 426.36 1254 0 1254 C0 840.18 0 426.36 0 0 Z " fill="#23252F" transform="translate(0,0)"/>
<path d="M0 0 C413.82 0 827.64 0 1254 0 C1254 413.82 1254 827.64 1254 1254 C840.18 1254 426.36 1254 0 1254 C0 840.18 0 426.36 0 0 Z M285.20703125 76.2578125 C282.18802446 76.95648642 279.16555165 77.50521867 276.11108398 78.02319336 C268.64400926 79.30552618 261.70082944 81.24224123 254.55859375 83.76171875 C251.35059594 84.87800339 248.14288766 85.82893514 244.875 86.75 C216.67364546 95.40072225 190.74451618 111.45781731 168 130 C167.44924805 130.44778809 166.89849609 130.89557617 166.33105469 131.35693359 C152.98456377 142.29649325 140.50467902 154.27549599 130 168 C129.26523438 168.94101563 128.53046875 169.88203125 127.7734375 170.8515625 C115.99185753 186.19595704 105.41555806 203.09353538 98 221 C97.70818848 221.70463379 97.41637695 222.40926758 97.11572266 223.13525391 C89.27653637 242.36092509 82.74585883 262.30978358 80.39453125 282.98828125 C80 286 80 286 79 289 C76.91049981 304.74306415 76.71286525 320.41801794 76.73930359 336.27435303 C76.73627699 338.87328521 76.73238498 341.47221651 76.72771102 344.07114625 C76.71901855 349.68523073 76.71761184 355.29927871 76.72121429 360.91336823 C76.72655737 369.26241304 76.72039008 377.61142297 76.71213136 385.960464 C76.69694546 401.74448969 76.69518068 417.52849926 76.69765439 433.31253073 C76.69949177 445.50623023 76.69771812 457.6999245 76.69342995 469.89362335 C76.69282753 471.64959731 76.69222633 473.40557127 76.69162634 475.16154523 C76.69071903 477.80808726 76.68981035 480.45462929 76.68889399 483.10117132 C76.68047267 507.68573265 76.67612311 532.27029201 76.68030071 556.85485458 C76.68045709 557.78033975 76.68061346 558.70582492 76.68077458 559.65935509 C76.68158028 564.34937472 76.68242606 569.03939434 76.68328788 573.72941396 C76.68345897 574.66075688 76.68363006 575.5920998 76.68380633 576.55166523 C76.68415299 578.43506326 76.68450152 580.31846129 76.68485192 582.20185931 C76.6902081 611.5020978 76.68227823 640.80230619 76.66381836 670.10253906 C76.64307074 703.07206426 76.63238085 736.04157082 76.63639385 769.01110291 C76.63678915 772.53110647 76.6371507 776.05111003 76.63749123 779.57111359 C76.63758196 780.43773631 76.63767269 781.30435903 76.63776617 782.19724304 C76.63892874 795.23989914 76.63230993 808.28253631 76.62167931 821.32518768 C76.60959175 836.16987579 76.60810918 851.01452241 76.62046947 865.85921118 C76.62706527 874.15024288 76.62554342 882.44117516 76.61188096 890.73219876 C76.60258428 896.9476198 76.609233 903.16293318 76.62172876 909.37834647 C76.62436108 911.8741093 76.62205589 914.36988393 76.61399289 916.86563513 C76.549527 938.32885243 78.19431842 959.43881281 83.125 980.375 C83.422854 981.66027588 83.72070801 982.94555176 84.02758789 984.26977539 C88.34378353 1002.48303867 93.83067152 1020.51181156 102.89599609 1036.95361328 C104.14408733 1039.26708094 105.31754822 1041.61130828 106.48828125 1043.96484375 C114.82415801 1060.58147391 124.7572082 1075.97853844 137 1090 C137.62132812 1090.73089844 138.24265625 1091.46179687 138.8828125 1092.21484375 C151.82458069 1107.05981314 165.86224846 1120.68665309 182 1132 C182.6388916 1132.45165527 183.2777832 1132.90331055 183.93603516 1133.36865234 C235.91417311 1169.84571284 294.34701955 1180.16690819 356.67182922 1180.14044189 C359.13332722 1180.14303069 361.59482479 1180.14604526 364.0563218 1180.1494453 C370.07579774 1180.15662115 376.09526003 1180.15921495 382.11473891 1180.15977435 C389.33522634 1180.16069459 396.55570573 1180.16738142 403.77618966 1180.17412117 C421.21839857 1180.1901151 438.66060654 1180.19607669 456.10282147 1180.20086992 C464.36639102 1180.20321228 472.62995987 1180.20681558 480.89352888 1180.2105653 C509.22380711 1180.22339427 537.55408497 1180.23411453 565.88436604 1180.2375679 C567.65982467 1180.23778953 569.43528331 1180.23801131 571.21074195 1180.23823325 C572.99028213 1180.23845389 574.7698223 1180.23867437 576.54936248 1180.2388947 C580.1189272 1180.23933723 583.68849192 1180.23978435 587.25805664 1180.24023438 C588.14308861 1180.24034377 589.02812057 1180.24045316 589.93997168 1180.24056586 C618.62106689 1180.24419449 647.3021368 1180.26011055 675.98322232 1180.28342474 C706.3627471 1180.30807407 736.74225743 1180.32174307 767.1217925 1180.32293582 C770.46273276 1180.32310725 773.80367301 1180.32332267 777.14461327 1180.32357025 C777.96714498 1180.32362602 778.78967669 1180.32368179 779.63713361 1180.32373925 C792.81732216 1180.32488515 805.99748451 1180.33586748 819.17766424 1180.35045731 C832.44819625 1180.36489214 845.71869504 1180.36802011 858.98923276 1180.36001733 C866.16445015 1180.35598012 873.33958727 1180.35662502 880.5147934 1180.37107468 C919.87094932 1180.66785125 919.87094932 1180.66785125 959 1177 C960.76661408 1176.75296812 962.53333994 1176.5067339 964.30019093 1176.26140213 C974.0740813 1174.88938397 983.46218131 1172.41367417 992.91308594 1169.60986328 C994.87502724 1169.03652105 996.84745367 1168.49941184 998.8203125 1167.96484375 C1005.37435346 1166.18588978 1011.58305264 1164.09957484 1017.79296875 1161.34375 C1020.57663146 1160.17739193 1023.35375341 1159.17630922 1026.203125 1158.1875 C1031.95513338 1156.11155802 1037.22265632 1153.46415417 1042.5625 1150.5 C1043.50923584 1149.97809082 1044.45597168 1149.45618164 1045.43139648 1148.91845703 C1064.19958322 1138.41809 1081.4981296 1125.91987352 1097 1111 C1097.94262695 1110.09822021 1097.94262695 1110.09822021 1098.90429688 1109.17822266 C1107.5905936 1100.82617598 1115.61405047 1092.3044012 1122.79150391 1082.61865234 C1123.9567376 1081.05794539 1125.1555617 1079.52249076 1126.35546875 1077.98828125 C1132.27353032 1070.35897296 1137.21674376 1062.36359457 1142 1054 C1142.45197754 1053.22027832 1142.90395508 1052.44055664 1143.36962891 1051.63720703 C1149.27349936 1041.4187373 1154.44434867 1031.39143975 1158.21655273 1020.19458008 C1159.21232537 1017.40523754 1160.33230554 1014.67123612 1161.43359375 1011.921875 C1164.12253534 1004.96911172 1165.96570494 997.93158992 1167.6875 990.6875 C1167.98205078 989.47771484 1168.27660156 988.26792969 1168.58007812 987.02148438 C1169.14679877 984.69219887 1169.70879623 982.36175759 1170.26538086 980.0300293 C1170.84647724 977.633224 1171.46665184 975.25549009 1172.109375 972.875 C1173.2937022 967.72213779 1173.93537278 962.55846895 1174.5625 957.3125 C1174.68818359 956.31283203 1174.81386719 955.31316406 1174.94335938 954.28320312 C1175.32217942 951.1911589 1175.66593341 948.09719089 1176 945 C1176.13864784 943.72668842 1176.13864784 943.72668842 1176.28009665 942.42765337 C1177.36482952 930.6288636 1177.15188377 918.78862254 1177.15390015 906.95152283 C1177.15791974 904.38795915 1177.16235878 901.8243961 1177.1671797 899.2608338 C1177.17819279 892.96927048 1177.18388827 886.67771271 1177.18788858 880.38614146 C1177.19292094 872.84368261 1177.20365207 865.3012344 1177.21437032 857.75878187 C1177.24115077 838.66291402 1177.25624904 819.56704114 1177.26971143 800.47116002 C1177.27338659 795.29234594 1177.27738899 790.11353215 1177.2814641 784.93471837 C1177.30673455 752.73244419 1177.3287622 720.53016945 1177.34119225 688.32788754 C1177.34411311 680.87459753 1177.34708074 673.42130754 1177.35009766 665.96801758 C1177.35046857 665.04212574 1177.35083947 664.11623391 1177.35122162 663.16228474 C1177.3633593 633.1871367 1177.39427668 603.2120476 1177.43601918 573.2369272 C1177.47892428 542.37017823 1177.50544818 511.50346036 1177.51066696 480.63668078 C1177.51140725 476.26549856 1177.5123179 471.8943164 1177.51332474 467.52313423 C1177.51351535 466.66299691 1177.51370597 465.8028596 1177.51390236 464.91665751 C1177.51739808 451.14711034 1177.53761281 437.37763768 1177.56412137 423.60811775 C1177.59043168 409.73081013 1177.59792415 395.85358748 1177.58702008 381.97625851 C1177.58161521 374.47611275 1177.58395433 366.97618231 1177.60948563 359.47607231 C1179.72438295 311.91152836 1179.72438295 311.91152836 1170 266 C1169.64423742 264.4567287 1169.32923523 262.90351821 1169.0546875 261.34375 C1168.03355424 255.96936444 1166.63844181 250.75435951 1165.125 245.5 C1164.88136719 244.62730469 1164.63773438 243.75460938 1164.38671875 242.85546875 C1162.63456383 236.72746579 1160.47926597 230.86911571 1158 225 C1157.5047583 223.81929932 1157.5047583 223.81929932 1156.99951172 222.61474609 C1146.84621731 198.73998546 1133.26488897 177.37231137 1116 158 C1115.29762207 157.20505127 1115.29762207 157.20505127 1114.58105469 156.39404297 C1109.64342731 150.82196245 1104.65835396 145.42190282 1098.94140625 140.62890625 C1096.84467986 138.86968109 1094.83380942 137.03272439 1092.8125 135.1875 C1075.36783994 119.73058182 1055.65403489 107.65283556 1035 97 C1034.30277832 96.64035156 1033.60555664 96.28070313 1032.88720703 95.91015625 C1016.8110487 87.74292661 999.67817223 82.56022519 982.1640625 78.50683594 C980.30202442 78.07073586 978.44705711 77.60464069 976.59375 77.1328125 C970.0131213 75.48765533 963.39234912 74.36585251 956.6875 73.375 C955.46172241 73.1901001 955.46172241 73.1901001 954.21118164 73.00146484 C937.93431384 70.71393925 921.56648015 70.85273696 905.16885376 70.85955811 C902.6656958 70.85697035 900.16253826 70.85395605 897.65938127 70.8505547 C891.52919743 70.84336876 885.39902611 70.84078445 879.26883855 70.84022565 C871.91760185 70.83930657 864.56637305 70.83262311 857.21513979 70.82587883 C839.45543813 70.80987303 821.69573739 70.80392194 803.93602981 70.79913008 C795.52443416 70.79678891 787.11283919 70.79318572 778.70124406 70.7894347 C749.87181216 70.77660464 721.04238063 70.7658845 692.21294594 70.7624321 C690.40566807 70.76221047 688.5983902 70.76198869 686.79111233 70.76176675 C684.97964078 70.76154611 683.16816923 70.76132563 681.35669768 70.7611053 C677.72298725 70.76066276 674.08927683 70.76021564 670.45556641 70.75976562 C669.55462797 70.75965623 668.65368952 70.75954684 667.72544992 70.75943414 C638.52500139 70.75580504 609.3245777 70.73988774 580.12413868 70.71657526 C549.20529517 70.69193628 518.28646585 70.6782574 487.36761224 70.67706418 C483.96855886 70.67689274 480.56950549 70.67667732 477.17045212 70.67642975 C476.33359363 70.67637398 475.49673514 70.67631821 474.63451731 70.67626075 C461.21372964 70.67511394 447.79296765 70.66412378 434.37218863 70.64954269 C420.8639806 70.63512119 407.35580522 70.63197248 393.84759159 70.63998267 C385.84118007 70.64441217 377.8348745 70.64068677 369.82847707 70.62474416 C363.82294592 70.6137312 357.81753311 70.61871861 351.81199722 70.62951604 C349.4028753 70.63145792 346.99374246 70.62846559 344.58463581 70.61967167 C324.6583948 70.55161581 304.65515284 71.60561079 285.20703125 76.2578125 Z " fill="#FDFDFD" transform="translate(0,0)"/>
<path d="M0 0 C3.63141285 1.27265559 7.21505359 2.67086765 10.80712891 4.04980469 C14.12088767 5.26151298 17.49703681 6.20331332 20.89453125 7.1484375 C29.52926935 9.59164778 37.97426139 12.54964428 46.43334961 15.53833008 C52.74339241 17.75981957 59.07823355 19.81559732 65.47949219 21.75756836 C72.89307526 24.05648695 80.23525509 26.57862047 87.59130859 29.05419922 C95.66337499 31.76835512 103.74384181 34.41125421 111.89257812 36.88867188 C117.93833267 38.75749976 123.92305404 40.81126974 129.91796875 42.8359375 C134.93088517 44.5200669 139.95103665 46.15238101 145.01171875 47.6875 C152.86616128 50.08507382 160.6427199 52.70615683 168.42718506 55.31988525 C183.30865855 60.31458906 198.21025346 65.24335321 213.1413269 70.08773804 C220.21452172 72.383163 227.28524938 74.68618915 234.35601807 76.98907471 C236.09511933 77.55530796 237.8343372 78.12118318 239.57366943 78.68670654 C244.61213189 80.32522996 249.64793806 81.97147418 254.67999268 83.62957764 C256.21241467 84.13318881 257.74571237 84.63414489 259.27996826 85.13214111 C283.8016231 93.09700681 283.8016231 93.09700681 290.0707584 103.72381604 C293.35125889 110.32880327 293.51822559 116.26897597 293.45823669 123.552948 C293.46377109 124.8121717 293.46930549 126.0713954 293.47500759 127.36877739 C293.48969628 130.84309163 293.47962097 134.3169496 293.46527088 137.7912488 C293.45412785 141.54580644 293.46611435 145.30030181 293.47511292 149.05485535 C293.48902236 156.4000622 293.48150741 163.74509676 293.46643733 171.09029536 C293.44955844 179.64306205 293.45278962 188.19578606 293.45653141 196.74856426 C293.46240523 212.00396046 293.44825433 227.25927401 293.42358398 242.51464844 C293.3996393 257.32294813 293.39259015 272.13113754 293.40307617 286.93945312 C293.41447698 303.06851521 293.41642778 319.19752634 293.40197808 335.3265878 C293.40045222 337.04501732 293.39893187 338.76344684 293.39741707 340.48187637 C293.39665925 341.3273812 293.39590144 342.17288603 293.39512066 343.04401221 C293.39037333 349.00891129 293.39223226 354.97378763 293.39648247 360.93868637 C293.40140101 368.20089304 293.39546045 375.46299533 293.37558817 382.72517805 C293.36569575 386.43190019 293.36063208 390.13846314 293.36848068 393.84519386 C293.37680226 397.85722404 293.36199862 401.86882745 293.3447113 405.88082886 C293.35372637 407.65029414 293.35372637 407.65029414 293.36292356 409.45550621 C293.35026365 411.06024415 293.35026365 411.06024415 293.33734798 412.69740105 C293.33631885 413.62397636 293.33528973 414.55055168 293.33422941 415.50520504 C292.95703125 417.8359375 292.95703125 417.8359375 291.63440281 419.63616097 C288.80796727 421.65783053 286.3330973 421.13496672 282.95703125 420.8359375 C280.36968441 420.13851856 277.95544573 419.38860058 275.44921875 418.4765625 C274.71442291 418.22000381 273.97962708 417.96344513 273.2225647 417.69911194 C271.60945996 417.13520902 269.99797561 416.56665449 268.38793945 415.99404907 C263.88574684 414.39442464 259.37028812 412.83308973 254.85546875 411.26953125 C253.36941132 410.7538282 253.36941132 410.7538282 251.85333252 410.22770691 C238.45929606 405.59866502 224.98232354 401.21819007 211.51139069 396.81932068 C209.46433697 396.1508233 207.41741815 395.48191451 205.37054443 394.81286621 C197.80063254 392.33850943 197.80063254 392.33850943 190.22964478 389.8674469 C172.59846971 384.11572762 172.59846971 384.11572762 166.91015625 381.99609375 C154.50941947 377.42734327 142.03847378 373.18540098 129.45703125 369.1484375 C115.34530761 364.62045239 101.30425243 359.91653343 87.29342651 355.08563232 C77.27677303 351.63423084 67.24236053 348.25522246 57.15625 345.01171875 C56.1795636 344.69708679 55.2028772 344.38245483 54.19659424 344.05828857 C49.48148136 342.54114985 44.76348851 341.03402664 40.04052734 339.54150391 C13.76726145 331.16999321 13.76726145 331.16999321 7.61682129 320.51393127 C4.14973452 313.27278496 2.87326942 306.62816997 2.11328125 298.67578125 C1.91100166 296.80409271 1.91100166 296.80409271 1.70463562 294.89459229 C1.41915521 292.23151013 1.14030751 289.56880005 0.87338257 286.90390015 C0.4552904 282.73053929 0.01184342 278.56012214 -0.4362793 274.38989258 C-0.88684604 270.18714419 -1.33611727 265.98429264 -1.77629089 261.78044128 C-3.02633071 249.84790768 -4.41111238 237.93391073 -5.85546875 226.0234375 C-6.05229779 224.3886163 -6.24891984 222.75377016 -6.4453125 221.11889648 C-6.71906106 218.84066528 -6.992941 216.56245103 -7.2676239 214.28433228 C-8.47903769 204.23559258 -9.65792662 194.18306074 -10.81834412 184.12831116 C-11.16026487 181.16766905 -11.50395669 178.20723388 -11.84790039 175.24682617 C-12.02229693 173.74139561 -12.19577249 172.23585811 -12.3684082 170.73022461 C-12.62336512 168.50866049 -12.88166675 166.28750703 -13.140625 164.06640625 C-13.29023682 162.77114014 -13.43984863 161.47587402 -13.59399414 160.14135742 C-13.93781106 157.61012454 -14.39881004 155.29447094 -15.04296875 152.8359375 C-15.32081541 149.98196907 -15.5651399 147.13145691 -15.79296875 144.2734375 C-16.7760941 132.72347563 -18.12288369 121.22169766 -19.48046875 109.7109375 C-20.93634609 97.36235185 -22.3751752 85.01536612 -23.66796875 72.6484375 C-24.67548591 63.0227845 -25.80146501 53.41812953 -27.04150391 43.81958008 C-30.86206957 14.15074754 -30.86206957 14.15074754 -27.04296875 6.8359375 C-19.31156358 -1.59981179 -11.11753044 -3.54718622 0 0 Z " fill="#F8F8F8" transform="translate(332.04296875,520.1640625)"/>
<path d="M0 0 C3.6198598 3.04068223 6.10767326 5.25833289 7 10 C7.69192674 21.96759509 6.39098544 33.77779503 5.02856445 45.65185547 C4.69048105 48.59901347 4.36459059 51.54731109 4.04101562 54.49609375 C2.85136865 65.20949718 1.52525971 75.89580984 -0.01496887 86.56484985 C-0.97503353 93.33225622 -1.49103289 100.05651519 -1.7890625 106.8828125 C-1.96300455 109.45328939 -2.35460866 111.5344034 -3 114 C-3.15298753 115.81035247 -3.27382151 117.62351429 -3.375 119.4375 C-3.7765874 125.12877852 -4.50008643 130.71509705 -5.34765625 136.35546875 C-7.17449626 148.83253785 -8.621316 161.34856349 -10.0625 173.875 C-10.57255338 178.28925683 -11.08438971 182.70330316 -11.59765625 187.1171875 C-11.71899933 188.16295959 -11.84034241 189.20873169 -11.96536255 190.28619385 C-12.77225263 197.19150832 -13.6486392 204.08281047 -14.61694336 210.96728516 C-15.15338736 215.21438992 -15.42801058 219.46970477 -15.72631836 223.73901367 C-16.0061221 227.07294636 -16.4197615 230.36192334 -16.87890625 233.67578125 C-18.0313493 242.12740714 -19.08170768 250.59043888 -20.115448 259.05731201 C-20.44471229 261.7464025 -20.778075 264.43496668 -21.11157227 267.12353516 C-22.11165213 275.24491791 -23.07461798 283.35901659 -23.78125 291.51171875 C-23.8954126 292.77089111 -24.0095752 294.03006348 -24.12719727 295.32739258 C-24.32622289 297.60279886 -24.50557016 299.88006225 -24.65991211 302.15893555 C-25.51753929 311.82082106 -29.01456887 319.38291176 -35.86328125 326.3203125 C-42.13519918 331.42846279 -49.605835 333.47380419 -57.1875 335.875 C-58.89593397 336.4349677 -60.6035842 336.99733081 -62.31054688 337.56176758 C-66.35908994 338.89728503 -70.41167971 340.21970143 -74.46630859 341.53662109 C-83.572957 344.50375361 -92.65489568 347.54457819 -101.73828125 350.58203125 C-105.26600825 351.76130123 -108.79377236 352.94046017 -112.3215332 354.11962891 C-113.2023931 354.41410038 -114.083253 354.70857185 -114.99080563 355.01196671 C-124.49099034 358.18720625 -133.99520075 361.35032406 -143.5 364.51171875 C-144.27611948 364.7698768 -145.05223896 365.02803486 -145.85187721 365.29401588 C-147.34869622 365.79189132 -148.84552092 366.28974967 -150.34235191 366.78758907 C-151.73335418 367.25026519 -153.12433238 367.71301364 -154.51528358 368.17584324 C-157.31000432 369.10572631 -160.10499099 370.03476966 -162.90101624 370.96072388 C-167.13131649 372.36330957 -171.2955328 373.8537659 -175.4375 375.5 C-180.03484603 377.28785679 -184.6127912 378.83418534 -189.3515625 380.19140625 C-192.5473768 381.16711947 -195.67178693 382.29699824 -198.8125 383.4375 C-204.46429697 385.48489717 -210.15132687 387.29918576 -215.90625 389.03125 C-219.68196245 390.2135438 -223.37810166 391.56317134 -227.07421875 392.97265625 C-229.41367554 393.79412105 -231.73045182 394.51317246 -234.109375 395.203125 C-241.77070198 397.47490894 -249.29967382 400.15093373 -256.85287476 402.75457764 C-269.7719573 407.20261009 -282.69662194 411.64051467 -295.6875 415.875 C-297.16101929 416.36552856 -297.16101929 416.36552856 -298.66430664 416.8659668 C-307.21468784 419.61794582 -307.21468784 419.61794582 -312 419 C-314.56413147 416.43586853 -314.25339401 415.48691415 -314.26285553 411.92483521 C-314.27053782 410.84368407 -314.27822011 409.76253294 -314.2861352 408.64861965 C-314.28353575 406.85246259 -314.28353575 406.85246259 -314.28088379 405.02001953 C-314.28682603 403.75538156 -314.29276828 402.49074358 -314.29889059 401.18778324 C-314.3150677 397.66570241 -314.31861179 394.14370301 -314.32008553 390.62158942 C-314.32378043 386.82723781 -314.33887234 383.03292878 -314.35235596 379.23860168 C-314.37955383 370.93460043 -314.39157796 362.63061844 -314.40037727 354.32658005 C-314.40589902 349.14139139 -314.41437337 343.95621022 -314.42338562 338.77102661 C-314.44777913 324.41594409 -314.46837348 310.06086757 -314.4751358 295.70576477 C-314.47557494 294.78642353 -314.47601407 293.8670823 -314.47646651 292.91988224 C-314.47690306 291.99832421 -314.47733962 291.07676618 -314.4777894 290.12728214 C-314.47867634 288.25982221 -314.47956946 286.39236227 -314.48046875 284.52490234 C-314.48091161 283.59857526 -314.48135447 282.67224817 -314.48181075 281.71785057 C-314.48970114 266.71906878 -314.52458833 251.72048168 -314.57118779 236.72177505 C-314.61864046 221.32410672 -314.6435408 205.92653597 -314.64587164 190.52879333 C-314.64770418 181.88312184 -314.65918323 173.2377037 -314.69551086 164.59210205 C-314.72634827 157.22703572 -314.73653363 149.86230094 -314.72003466 142.49718231 C-314.71223255 138.7408354 -314.71402416 134.98515573 -314.74214935 131.22889137 C-314.77240443 127.15073151 -314.75586212 123.07406804 -314.73498535 118.99584961 C-314.75109816 117.81625734 -314.76721097 116.63666508 -314.78381205 115.42132759 C-314.67996195 106.73795375 -312.34580317 100.48469753 -306.24440241 94.1882925 C-302.32440283 90.70669585 -297.69375885 88.98558813 -292.83203125 87.20703125 C-292.13452255 86.9489418 -291.43701385 86.69085236 -290.71836853 86.42494202 C-283.3089402 83.70677817 -275.83689626 81.17815399 -268.34594727 78.69506836 C-266.06569977 77.93856157 -263.78766696 77.17564762 -261.50976562 76.41210938 C-254.19745339 73.97283736 -246.87248967 71.63725735 -239.46484375 69.50390625 C-230.70057672 66.97569989 -222.10602293 64.01717489 -213.5 61 C-204.12544768 57.71338735 -194.75486309 54.57835594 -185.20639038 51.83303833 C-178.08619108 49.77058805 -171.113417 47.34817355 -164.125 44.875 C-156.59410891 42.21280602 -149.11813542 39.70361117 -141.38818359 37.68725586 C-139.25432008 37.07318657 -137.30597576 36.35189249 -135.28125 35.44921875 C-131.75713225 33.89273341 -128.20276406 32.83085008 -124.5 31.8125 C-117.40306281 29.79841845 -110.45285253 27.463234 -103.5 25 C-96.21321072 22.42164343 -88.93015033 20.03185175 -81.4921875 17.93359375 C-74.40407826 15.89879433 -67.48371775 13.41010753 -60.53417969 10.95019531 C-53.96396897 8.64020136 -47.36671795 6.56078623 -40.66821289 4.65893555 C-36.69300498 3.52350979 -32.8101654 2.25878954 -28.9375 0.8125 C-19.61433603 -2.65560467 -8.95368798 -6.10478726 0 0 Z " fill="#F39B9B" transform="translate(952,522)"/>
<path d="M0 0 C8.76585852 2.27589292 15.83970946 7.68057165 23 13 C23.55655273 13.41088867 24.11310547 13.82177734 24.68652344 14.24511719 C32.15064749 19.7835753 39.15867605 25.70503178 46 32 C47.26696938 33.10859821 48.53766556 34.2129553 49.8125 35.3125 C60.20954099 44.42520063 70.09223617 53.98867134 79.875 63.75 C80.42074677 64.29315857 80.96649353 64.83631714 81.52877808 65.39593506 C87.02395907 70.87058277 92.45901247 76.35489005 97.50146484 82.25634766 C99.87605682 85.01935448 102.38307316 87.65575875 104.875 90.3125 C109.3599674 95.13422502 113.62658514 100.07639858 117.75390625 105.2109375 C120.32185381 108.39965847 122.93721163 111.54598236 125.5625 114.6875 C126.00480957 115.21738525 126.44711914 115.74727051 126.90283203 116.29321289 C127.9347649 117.52918983 128.96731143 118.76465439 130 120 C134.18856279 118.59630602 136.84009243 116.61327044 140.125 113.6875 C146.85260329 107.8627634 154.16453754 102.9871494 161.5390625 98.02734375 C164.91414595 95.7551419 168.19540717 93.39719503 171.4375 90.9375 C190.47032451 76.97033493 229.19880441 48.5998843 254 51 C252.30592413 56.76177215 249.68752091 61.99616928 247.0625 67.375 C244.07212953 73.50373599 241.28146332 79.56973705 239 86 C240.25554687 85.72285156 241.51109375 85.44570313 242.8046875 85.16015625 C257.1403662 82.0356032 270.35054258 80.84704743 285 81 C283.65138201 83.92726104 282.10800618 86.25527389 280.03125 88.71484375 C279.46019531 89.40126953 278.88914062 90.08769531 278.30078125 90.79492188 C277.10218332 92.22101941 275.90166647 93.64550638 274.69921875 95.06835938 C273.84263672 96.09993164 273.84263672 96.09993164 272.96875 97.15234375 C272.18661133 98.0803479 272.18661133 98.0803479 271.38867188 99.02709961 C269.82535988 101.24811301 268.91834587 103.4522509 268 106 C271.55996182 107.96297379 275.12339831 109.91955438 278.6875 111.875 C279.69490234 112.43058594 280.70230469 112.98617187 281.74023438 113.55859375 C282.71669922 114.09355469 283.69316406 114.62851562 284.69921875 115.1796875 C286.04246216 115.91807861 286.04246216 115.91807861 287.4128418 116.67138672 C289.8975149 117.94736964 292.39037217 119.00879384 295 120 C299.23367697 115.32795866 303.3577156 110.5988568 307.3125 105.6875 C311.43101702 100.60870699 315.77223247 95.80158225 320.2265625 91.01953125 C322.32251544 88.76029207 324.3573691 86.45493442 326.37890625 84.12890625 C335.65521734 73.48732148 345.53781847 63.37143723 355.5 53.375 C356.22872314 52.64168457 356.95744629 51.90836914 357.70825195 51.15283203 C361.74152375 47.13108782 365.87282694 43.28648431 370.18701172 39.56787109 C372.61049493 37.47204438 374.95915309 35.29900943 377.3125 33.125 C385.26773743 25.88900321 393.61154582 19.2294331 402.1875 12.75 C403.16722778 12.0067749 403.16722778 12.0067749 404.16674805 11.24853516 C417.53295706 1.24028949 417.53295706 1.24028949 426 0 C426.66 -0.10699219 427.32 -0.21398437 428 -0.32421875 C432.02441078 -0.67792673 434.67692249 0.03208795 438.0625 2.25 C449.68508965 12.03026135 454.1856933 30.24383778 458.01171875 44.3828125 C458.67959159 46.82727988 459.39190205 49.25997178 460.14453125 51.6796875 C466.44033081 72.19286897 469.89384153 94.29344566 471.67578125 115.6484375 C471.87916348 118.76126894 471.87916348 118.76126894 472.48681641 120.75439453 C473.86979367 126.80607145 473.72267449 133.3039581 474.0625 139.5 C474.10735535 140.29724487 474.15221069 141.09448975 474.19842529 141.91589355 C475.03284886 156.95663284 475.2391741 171.93571122 475 187 C473.89301758 187.35715088 472.78603516 187.71430176 471.64550781 188.08227539 C446.33547804 196.1541903 446.33547804 196.1541903 421.22558594 204.81860352 C417.22885685 206.25968458 413.20855852 207.56119628 409.14257812 208.79492188 C401.89040484 211.01799689 394.6838175 213.3705112 387.48046875 215.74609375 C386.10566799 216.19839397 384.73082456 216.65056453 383.35594177 217.10261536 C380.45991696 218.05501659 377.5641177 219.00809887 374.66851807 219.96179199 C367.11449468 222.44975985 359.55929332 224.93414563 352.00390625 227.41796875 C351.25938454 227.66277103 350.51486282 227.90757332 349.74777985 228.15979385 C338.18282323 231.96186308 326.60766128 235.73122609 315.02340698 239.47412109 C308.34417749 241.63483582 301.67108473 243.81428871 295 246 C294.3503125 246.21235291 293.700625 246.42470581 293.03125 246.64349365 C268.07493098 254.80939447 242.14634829 263.6092377 219.1965332 276.59985352 C216.29584343 278.18532135 214.31119602 279.00643299 210.9765625 278.9375 C207.47195177 277.8336856 204.34552286 276.29755878 201.125 274.5625 C168.95253277 257.98321617 133.58858542 247.35383804 99.22599792 236.33184814 C91.10807364 233.72332853 83.02118174 231.02492054 74.9375 228.3125 C64.64809107 224.86241415 54.33800367 221.49002043 44 218.1875 C29.76012107 213.63675441 15.61959375 208.80818615 1.49609375 203.90893555 C-7.10678961 200.93611324 -15.71634917 198.10067655 -24.47677612 195.62394714 C-29.03628483 194.3286362 -33.36726812 192.75092674 -37.72827148 190.90576172 C-40.21529839 189.9141583 -42.71638185 189.13620615 -45.28515625 188.3828125 C-46.17211182 188.12129395 -47.05906738 187.85977539 -47.97290039 187.59033203 C-48.64184326 187.39552246 -49.31078613 187.20071289 -50 187 C-50.56222564 154.53219 -50.79843152 119.68761239 -42.49780273 88.06225586 C-41.75840776 84.9991517 -41.27222668 81.90378195 -40.75854492 78.79614258 C-30.43071248 16.94785866 -30.43071248 16.94785866 -11.3515625 1.41015625 C-7.42240677 -0.94603182 -4.40229494 -0.97911823 0 0 Z " fill="#FCFCFC" transform="translate(419,330)"/>
<path d="M0 0 C5.88324515 2.94162257 8.39880615 7.05441406 11 13 C14.78464149 28.47555458 9.28127603 42.68408824 4 57 C4.57105469 56.62488281 5.14210938 56.24976563 5.73046875 55.86328125 C19.0158038 47.47810158 33.24251448 42.92551521 49 45 C54.05900875 46.63485862 59.48388888 48.46265083 62.31640625 53.203125 C62.54199219 53.79609375 62.76757812 54.3890625 63 55 C62.55527344 55.61488281 62.11054687 56.22976563 61.65234375 56.86328125 C61.08644531 57.67152344 60.52054688 58.47976563 59.9375 59.3125 C59.36902344 60.11300781 58.80054688 60.91351562 58.21484375 61.73828125 C57.81394531 62.48464844 57.41304687 63.23101563 57 64 C58.09898702 67.29696105 58.94597387 68.04670589 61.5625 70.1875 C62.20316406 70.71730469 62.84382812 71.24710938 63.50390625 71.79296875 C63.99761719 72.19128906 64.49132812 72.58960938 65 73 C62.60993739 81.49800038 55.33865442 87.0359104 48.09765625 91.3984375 C36.31933412 97.48811224 24.0887823 100.07032948 11 101 C11.44730469 101.40089844 11.89460937 101.80179688 12.35546875 102.21484375 C20.72059311 110.0805577 25.86800942 120.15137528 26.4375 131.75 C26.28258728 137.14612631 24.9712336 148.0287664 21 152 C18.64686445 152.07271741 16.29166332 152.08370868 13.9375 152.0625 C12.64714844 152.05347656 11.35679687 152.04445313 10.02734375 152.03515625 C8.52880859 152.01775391 8.52880859 152.01775391 7 152 C6.80664062 152.62648438 6.61328125 153.25296875 6.4140625 153.8984375 C6.15367187 154.71570313 5.89328125 155.53296875 5.625 156.375 C5.36976563 157.18710937 5.11453125 157.99921875 4.8515625 158.8359375 C4 161 4 161 2 163 C-4.02315038 164.20972365 -8.77581162 162.72318924 -13.875 159.52734375 C-24.41163254 151.95413911 -30.0460552 140.46283376 -33 128 C-33.36609375 128.78761719 -33.7321875 129.57523438 -34.109375 130.38671875 C-41.8686528 145.9976467 -54.21662328 159.00711806 -70.7109375 165.40625 C-73.22267771 166.05775941 -75.41586329 166.1095747 -78 166 C-79.29243536 161.8803623 -80.26252625 158.33168317 -80 154 C-80.55171875 154.16371094 -81.1034375 154.32742188 -81.671875 154.49609375 C-84.26614007 155.05760414 -86.59835411 155.09739008 -89.25 155.0625 C-90.14203125 155.05347656 -91.0340625 155.04445313 -91.953125 155.03515625 C-92.96632813 155.01775391 -92.96632813 155.01775391 -94 155 C-94.3494098 147.35180777 -94.09241192 141.04521265 -91 134 C-90.6596875 133.19949219 -90.319375 132.39898438 -89.96875 131.57421875 C-85.17145175 121.15306073 -76.48719737 109.24359869 -66 104 C-67.26714844 103.96261719 -68.53429687 103.92523437 -69.83984375 103.88671875 C-71.53908931 103.82100207 -73.2383068 103.75455677 -74.9375 103.6875 C-75.76830078 103.66494141 -76.59910156 103.64238281 -77.45507812 103.61914062 C-87.74202857 103.17884314 -95.54792693 100.22851087 -103 93 C-105.51086267 89.88842019 -106.79400466 86.84114765 -107.75 82.9375 C-106.70203651 78.83297631 -104.41032033 77.49367018 -101.04296875 75.1015625 C-99 74 -99 74 -96 74 C-96.495 72.989375 -96.99 71.97875 -97.5 70.9375 C-99.10235054 67.04158889 -99.92373099 64.23376703 -99 60 C-96.34322967 57.33685852 -93.33644429 55.69508956 -90 54 C-89.19175781 53.58363281 -88.38351562 53.16726563 -87.55078125 52.73828125 C-76.53903915 47.93223761 -63.81626149 48.6309415 -52.7109375 52.734375 C-49.34729856 54.30471941 -46.20046487 56.11923299 -43 58 C-43.02320313 56.73285156 -43.04640625 55.46570313 -43.0703125 54.16015625 C-43.08908833 52.46094345 -43.10728657 50.7617242 -43.125 49.0625 C-43.14175781 48.23169922 -43.15851562 47.40089844 -43.17578125 46.54492188 C-43.29717898 30.94531358 -37.25829353 17.66353922 -27 6 C-22.52 2 -22.52 2 -19.5 2 C-16.46130166 3.21547934 -14.37612374 4.75965476 -12 7 C-12 7.66 -12 8.32 -12 9 C-8.04 6.03 -4.08 3.06 0 0 Z " fill="#FCF4F4" transform="translate(792,657)"/>
<path d="M0 0 C8.78509923 3.53524693 15.94561927 12.42191566 22.53662109 19.06713867 C24.07995227 20.6211756 25.63367532 22.16423783 27.1887207 23.70654297 C33.57734814 30.0867351 39.40050753 36.73819148 45.02270508 43.81396484 C45.88602534 44.84157201 46.7544314 45.86497405 47.63208008 46.88037109 C54.42417298 54.80034804 60.51941149 63.16456952 66.5246582 71.68994141 C67.47640514 73.03938703 68.43290516 74.38550251 69.39575195 75.72705078 C70.57594234 77.37186157 71.73759675 79.02992881 72.89770508 80.68896484 C73.53450195 81.59388672 74.17129883 82.49880859 74.82739258 83.43115234 C76.02270508 85.81396484 76.02270508 85.81396484 76.13598633 87.87646484 C74.35422477 90.97735513 71.38138939 92.27238345 68.33520508 93.93896484 C56.79175514 100.55521421 46.30615984 108.38654826 36.02270508 116.81396484 C35.19899414 117.46365234 34.3752832 118.11333984 33.52661133 118.78271484 C22.51870008 127.54978829 11.39044857 137.08134284 2.79614258 148.27490234 C0.20951635 150.51968369 -1.55260917 150.5949753 -4.97729492 150.81396484 C-8.04055012 150.09890146 -10.9223163 149.0112108 -13.85229492 147.87646484 C-15.02791992 147.44043945 -15.02791992 147.44043945 -16.22729492 146.99560547 C-18.14867747 146.28094489 -20.06367319 145.5491536 -21.97729492 144.81396484 C-21.9149475 136.09190848 -21.8370903 127.37014716 -21.74158001 118.64839077 C-21.6976297 114.59463571 -21.65823085 110.54096414 -21.63085938 106.48706055 C-21.4453549 79.82609268 -20.32286215 53.36294175 -15.53979492 27.06396484 C-15.34836914 25.91283203 -15.15694336 24.76169922 -14.9597168 23.57568359 C-11.76401796 5.39432906 -11.76401796 5.39432906 -7.04199219 1.02197266 C-4.56041153 -0.42994423 -2.81315116 -0.56730213 0 0 Z " fill="#F29A9A" transform="translate(427.977294921875,384.18603515625)"/>
<path d="M0 0 C3.95143974 1.7741158 4.90691534 3.65053215 7.0625 7.375 C10.74501939 17.77780729 12.03527098 28.91087458 13.29394531 39.82104492 C13.78023857 44.01359594 14.29514721 48.20075474 14.83496094 52.38671875 C17.1772454 71.34830725 17.60433887 90.13244804 17.73205566 109.21051025 C17.76251102 113.30841284 17.80880573 117.4061388 17.85351562 121.50390625 C17.93812401 129.4608621 18.00460274 137.41780496 18.0625 145.375 C7.6675 148.84 7.6675 148.84 -2.9375 152.375 C-6.40281372 148.90968628 -9.68309874 145.45881849 -12.9375 141.8125 C-18.90472279 135.24662049 -25.25820233 129.21053809 -31.9375 123.375 C-32.51532227 122.86888184 -33.09314453 122.36276367 -33.68847656 121.84130859 C-47.9684729 109.47597042 -63.90397386 99.30051618 -79.9375 89.375 C-79.03954629 85.09459887 -76.87240698 81.9412231 -74.4375 78.375 C-73.98753662 77.70927979 -73.53757324 77.04355957 -73.07397461 76.35766602 C-68.88902426 70.21361512 -64.48350081 64.25672058 -59.9375 58.375 C-59.51355957 57.8195752 -59.08961914 57.26415039 -58.65283203 56.69189453 C-52.96249849 49.23853473 -47.06240856 42.12451924 -40.640625 35.2890625 C-38.57712903 33.06454228 -36.57700998 30.81766549 -34.59375 28.5234375 C-10.61373995 1.01083238 -10.61373995 1.01083238 0 0 Z " fill="#F29A9A" transform="translate(838.9375,383.625)"/>
<path d="M0 0 C9.875 1.875 9.875 1.875 11 3 C11.07319621 5.69654854 11.09242537 8.36691458 11.0625 11.0625 C11.05798828 11.82111328 11.05347656 12.57972656 11.04882812 13.36132812 C11.0370068 15.24091871 11.01907078 17.12046899 11 19 C12.07378906 19.13535156 13.14757812 19.27070312 14.25390625 19.41015625 C17.13331274 19.86353517 19.30127991 20.32417292 21.9375 21.4375 C24.68393063 22.55838368 27.20644065 23.24411638 30.125 23.75 C34.11071657 24.77006348 36.21900608 26.46904264 38.79638672 29.63671875 C41.33425158 34.6197881 40.39591115 40.20273863 40 45.625 C39.91298828 47.41744141 39.91298828 47.41744141 39.82421875 49.24609375 C38.52352888 72.78603001 38.52352888 72.78603001 33 79 C29.70923244 80.64538378 26.55473797 80.51574201 23 80 C12.35526316 76.35526316 12.35526316 76.35526316 10 74 C9.92794489 72.31391034 9.91613932 70.62499341 9.9375 68.9375 C9.94652344 68.01839844 9.95554687 67.09929687 9.96484375 66.15234375 C9.97644531 65.44207031 9.98804688 64.73179687 10 64 C11.7634375 64.495 11.7634375 64.495 13.5625 65 C17.5011676 65.9969533 20.95139129 66.16869203 25 66 C27.1840512 59.60385005 27.63884784 53.27697861 28.125 46.5625 C28.21136719 45.44939453 28.29773438 44.33628906 28.38671875 43.18945312 C28.59757328 40.46005838 28.80181226 37.73033879 29 35 C28.33758301 34.87447754 27.67516602 34.74895508 26.99267578 34.61962891 C22.53002453 33.75449589 18.16866791 32.89855958 13.875 31.375 C13.12992188 31.11460937 12.38484375 30.85421875 11.6171875 30.5859375 C11.08351563 30.39257812 10.54984375 30.19921875 10 30 C9.96132813 30.89138672 9.96132813 30.89138672 9.921875 31.80078125 C9.12212058 43.48810149 5.07547579 53.39236765 -3 62 C-6.5089113 64.65826614 -10.12660918 66.91378031 -14 69 C-20.92307692 63.46153846 -20.92307692 63.46153846 -23 60 C-23 59.01 -23 58.02 -23 57 C-22.48050781 56.75765625 -21.96101562 56.5153125 -21.42578125 56.265625 C-12.31298784 51.88609397 -7.76235997 47.04287646 -4.0546875 37.58984375 C-2.73665731 33.75731906 -1.75234498 29.98464191 -1 26 C-1.90878906 25.83564453 -1.90878906 25.83564453 -2.8359375 25.66796875 C-19.48197343 22.51802657 -19.48197343 22.51802657 -22 20 C-22.07226502 18.14712498 -22.0838122 16.29166122 -22.0625 14.4375 C-22.05347656 13.42558594 -22.04445313 12.41367187 -22.03515625 11.37109375 C-22.02355469 10.58863281 -22.01195312 9.80617188 -22 9 C-21.33355469 9.18175781 -20.66710937 9.36351562 -19.98046875 9.55078125 C-19.05878906 9.80214844 -18.13710938 10.05351563 -17.1875 10.3125 C-11.45833333 11.875 -5.72916667 13.4375 0 15 C0 10.05 0 5.1 0 0 Z " fill="#292B35" transform="translate(541,718)"/>
<path d="M0 0 C3.7576541 0.68662314 7.34033697 1.65522686 10.98828125 2.78515625 C12.15858887 3.14681885 13.32889648 3.50848145 14.53466797 3.88110352 C19.07398729 5.30063086 23.6112356 6.72660466 28.14544678 8.16236877 C32.42007073 9.51331125 36.70730731 10.8139382 41.00390625 12.09375 C43.12793006 12.74894443 45.2516454 13.40514001 47.375 14.0625 C48.34735596 14.3416626 49.31971191 14.6208252 50.3215332 14.90844727 C56.96954951 17.01681312 61.25117497 20.02098131 65 26 C65.78979492 28.05419922 65.78979492 28.05419922 66 30 C64.65762013 32.42231694 63.33010244 34.48441397 61.6875 36.6875 C61.00941284 37.61526245 61.00941284 37.61526245 60.31762695 38.56176758 C54.9538475 45.69027779 48.76629267 51.56015481 41 56 C41.7868409 61.18315831 45.34463491 65.04184472 48.28515625 69.22265625 C50 72 50 72 50 75 C44.62683176 78.0529365 44.62683176 78.0529365 41.97924805 77.8293457 C39.39684799 76.74726688 38.60640106 75.50284301 37.08203125 73.16796875 C36.55432129 72.37503418 36.02661133 71.58209961 35.48291016 70.76513672 C34.9316748 69.9145166 34.38043945 69.06389648 33.8125 68.1875 C32.65176875 66.44265884 31.48900589 64.69916748 30.32421875 62.95703125 C29.75751465 62.1057666 29.19081055 61.25450195 28.60693359 60.37744141 C23.53907584 52.87959899 17.89848055 45.77907116 12.21484375 38.7421875 C11 37 11 37 11 35 C17.75 31 17.75 31 20 31 C21.55078125 32.79296875 21.55078125 32.79296875 23.3125 35.1875 C26.00847619 38.76333453 28.74008131 41.93765214 32 45 C39.96901118 40.2153273 44.96330861 34.78014061 50 27 C49.21536377 26.89945313 48.43072754 26.79890625 47.62231445 26.6953125 C42.95448007 25.79930978 38.55358855 24.35753436 34.04296875 22.875 C32.62761589 22.41456299 32.62761589 22.41456299 31.18367004 21.94482422 C29.1986734 21.2979741 27.21436583 20.64900601 25.23071289 19.99804688 C22.18230201 18.99829528 19.13138907 18.00648556 16.08007812 17.015625 C14.15088876 16.38588489 12.22184697 15.75569249 10.29296875 15.125 C9.37637985 14.82706543 8.45979095 14.52913086 7.51542664 14.22216797 C6.25325066 13.80668701 6.25325066 13.80668701 4.96557617 13.3828125 C4.22200363 13.13934082 3.47843109 12.89586914 2.71232605 12.64501953 C1 12 1 12 0 11 C-0.07226502 9.14712498 -0.0838122 7.29166122 -0.0625 5.4375 C-0.05347656 4.42558594 -0.04445313 3.41367187 -0.03515625 2.37109375 C-0.02355469 1.58863281 -0.01195312 0.80617188 0 0 Z " fill="#272833" transform="translate(360,669)"/>
<path d="M0 0 C0 2.64 0 5.28 0 8 C2.31 8 4.62 8 7 8 C7.79314297 16.56594405 4.54578393 22.1813241 -0.125 29.1875 C-7.59004099 37.34374849 -18.499986 41.44275753 -29 44 C-32.44921875 44.12890625 -32.44921875 44.12890625 -35 44 C-36.03415604 31.24540881 -32.19442092 19.87186709 -24 10 C-16.9110578 2.45418211 -10.3061854 -0.55211708 0 0 Z " fill="#FCF3F3" transform="translate(894,622)"/>
<path d="M0 0 C0.66 0 1.32 0 2 0 C3.0384211 1.71866217 4.05514635 3.45044598 5.0625 5.1875 C5.63097656 6.15042969 6.19945312 7.11335937 6.78515625 8.10546875 C8.1781141 11.42438119 8.21417334 12.65560289 7 16 C-0.74943076 28.71355886 -12.41221426 36.27347796 -26.60742188 39.82397461 C-34.0554057 41.47219877 -41.4180504 41.36296567 -49 41 C-50.00484204 39.04414675 -51.00373805 37.08523763 -52 35.125 C-52.8353125 33.48917969 -52.8353125 33.48917969 -53.6875 31.8203125 C-55 29 -55 29 -55 27 C-54.3608667 26.9906543 -53.7217334 26.98130859 -53.06323242 26.97167969 C-35.51473293 26.64890501 -21.84355396 25.5853741 -8.703125 12.7578125 C-5.0333735 8.78001616 -2.05826085 5.01701081 0 0 Z " fill="#282934" transform="translate(497,722)"/>
<path d="M0 0 C2.82478464 1.28562206 4.87596369 2.62726167 7.05859375 4.828125 C7.60966797 5.38113281 8.16074219 5.93414063 8.72851562 6.50390625 C9.29248047 7.08011719 9.85644531 7.65632812 10.4375 8.25 C11.27764648 9.09111328 11.27764648 9.09111328 12.13476562 9.94921875 C15.6315767 13.48275246 18.86969698 17.13831777 22 21 C20.55746343 24.36591866 18.66735273 26.51047079 16 29 C11.90313841 27.41909341 9.40542543 24.4566009 6.5625 21.25 C6.09779297 20.73695313 5.63308594 20.22390625 5.15429688 19.6953125 C2.79239275 17.07317068 0.50605287 14.40811194 -1.72265625 11.671875 C-3.71840085 8.97804385 -3.71840085 8.97804385 -6 8 C-5.65120368 4.74456771 -4.97866739 3.98126893 -2.4375 1.75 C-1.633125 1.1725 -0.82875 0.595 0 0 Z " fill="#292A35" transform="translate(447,695)"/>
<path d="M0 0 C2.31 0 4.62 0 7 0 C7.83790789 1.78953185 8.67019396 3.58169695 9.5 5.375 C9.9640625 6.37273438 10.428125 7.37046875 10.90625 8.3984375 C12 11 12 11 12 13 C10.02 13.33 8.04 13.66 6 14 C4.99515796 12.04414675 3.99626195 10.08523763 3 8.125 C2.1646875 6.48917969 2.1646875 6.48917969 1.3125 4.8203125 C0 2 0 2 0 0 Z " fill="#2C2D36" transform="translate(567,727)"/>
<path d="M0 0 C1.00484204 1.95585325 2.00373805 3.91476237 3 5.875 C3.556875 6.96554687 4.11375 8.05609375 4.6875 9.1796875 C6 12 6 12 6 14 C4.02 14.33 2.04 14.66 0 15 C-0.84324672 13.421924 -1.67423918 11.8372958 -2.5 10.25 C-2.9640625 9.36828125 -3.428125 8.4865625 -3.90625 7.578125 C-5 5 -5 5 -5 1 C-3 0 -3 0 0 0 Z " fill="#2A2B35" transform="translate(583,725)"/>
<path d="M0 0 C1.32 0.33 2.64 0.66 4 1 C-2.27 7.27 -8.54 13.54 -15 20 C-15.99 19.34 -16.98 18.68 -18 18 C-15.10369567 14.95905847 -12.17990886 11.94604905 -9.25 8.9375 C-8.425 8.07060547 -7.6 7.20371094 -6.75 6.31054688 C-5.95078125 5.49521484 -5.1515625 4.67988281 -4.328125 3.83984375 C-3.5949707 3.08050537 -2.86181641 2.32116699 -2.10644531 1.53881836 C-1.41131836 1.0310083 -0.71619141 0.52319824 0 0 Z " fill="#2C2F38" transform="translate(157,139)"/>
<path d="M0 0 C0.33 0 0.66 0 1 0 C1.02554072 7.73721606 1.04294631 15.47442109 1.05493164 23.21166992 C1.05993292 25.8389527 1.06673607 28.46623274 1.07543945 31.09350586 C1.0876905 34.88916708 1.09327053 38.68479123 1.09765625 42.48046875 C1.10281754 43.63830368 1.10797882 44.79613861 1.11329651 45.98905945 C1.11381663 53.70285554 0.69834494 61.31830464 0 69 C-0.33 69 -0.66 69 -1 69 C-1.19390729 66.68802845 -1.37996367 64.3753971 -1.5625 62.0625 C-1.71912109 60.13083984 -1.71912109 60.13083984 -1.87890625 58.16015625 C-1.91886719 57.11730469 -1.95882813 56.07445312 -2 55 C-1.505 54.505 -1.505 54.505 -1 54 C-0.87700834 52.31290653 -0.82214742 50.62079097 -0.79467773 48.92944336 C-0.77473251 47.84839828 -0.75478729 46.76735321 -0.73423767 45.65354919 C-0.71752518 44.4775264 -0.70081268 43.3015036 -0.68359375 42.08984375 C-0.66281265 40.89267227 -0.64203156 39.69550079 -0.62062073 38.46205139 C-0.55499721 34.62059513 -0.49618097 30.77906799 -0.4375 26.9375 C-0.39432695 24.34048733 -0.35071307 21.74348194 -0.30664062 19.14648438 C-0.19930284 12.76439883 -0.09756069 6.38224207 0 0 Z " fill="#2C2D37" transform="translate(1176,876)"/>
<path d="M0 0 C6.27 0 12.54 0 19 0 C19 0.66 19 1.32 19 2 C13.39 2 7.78 2 2 2 C2.66 3.32 3.32 4.64 4 6 C3.01 6.495 3.01 6.495 2 7 C0.5393715 4.35261084 0 3.10551666 0 0 Z " fill="#20232F" transform="translate(443,750)"/>
<path d="M0 0 C0.96661363 3.12180401 0.98988909 5.52083795 0.5625 8.75 C0.46066406 9.54921875 0.35882812 10.3484375 0.25390625 11.171875 C0.17011719 11.77515625 0.08632813 12.3784375 0 13 C0.66 13 1.32 13 2 13 C1.67 19.93 1.34 26.86 1 34 C0.67 34 0.34 34 0 34 C-0.60058518 25.33441388 -1.10110762 16.68886334 -1.125 8 C-1.12951172 7.31228516 -1.13402344 6.62457031 -1.13867188 5.91601562 C-1.12401745 1.12401745 -1.12401745 1.12401745 0 0 Z " fill="#4C4D54" transform="translate(893,455)"/>
<path d="M0 0 C0.33 0 0.66 0 1 0 C1.19448477 2.12437212 1.38038289 4.24953191 1.5625 6.375 C1.66691406 7.55835938 1.77132812 8.74171875 1.87890625 9.9609375 C2 13 2 13 1 15 C0.6087065 17.54197964 0.25520881 20.07391589 -0.0625 22.625 C-0.15337891 23.33140625 -0.24425781 24.0378125 -0.33789062 24.765625 C-0.56183119 26.5100041 -0.78133818 28.25495134 -1 30 C-1.33 30 -1.66 30 -2 30 C-2.11097627 23.23738351 -1.69258682 16.66214361 -1 9.9375 C-0.90460938 8.97650391 -0.80921875 8.01550781 -0.7109375 7.02539062 C-0.4778808 4.68317077 -0.24083651 2.34143045 0 0 Z " fill="#60626A" transform="translate(79,289)"/>
<path d="M0 0 C0.33 0 0.66 0 1 0 C1.33 2.64 1.66 5.28 2 8 C1.34 8 0.68 8 0 8 C0.350625 8.556875 0.70125 9.11375 1.0625 9.6875 C2.21845993 12.53886783 1.80967438 14.08517222 1 17 C0.34 17 -0.32 17 -1 17 C-1 19.31 -1 21.62 -1 24 C-1.33 24 -1.66 24 -2 24 C-1.85873374 20.93722733 -1.71215604 17.87486458 -1.5625 14.8125 C-1.50352539 13.51602539 -1.50352539 13.51602539 -1.44335938 12.19335938 C-1.23652984 8.04085878 -0.99896469 4.05462138 0 0 Z " fill="#3E333E" transform="translate(942,689)"/>
<path d="M0 0 C-0.33 0.99 -0.66 1.98 -1 3 C-2.65 3.33 -4.3 3.66 -6 4 C-6 3.34 -6 2.68 -6 2 C-12.6 2.33 -19.2 2.66 -26 3 C-26 2.34 -26 1.68 -26 1 C-22.22921314 0.83227069 -18.45836341 0.66599875 -14.6875 0.5 C-13.61564453 0.45230469 -12.54378906 0.40460937 -11.43945312 0.35546875 C-9.89741211 0.28779297 -9.89741211 0.28779297 -8.32421875 0.21875 C-7.37635498 0.17685547 -6.42849121 0.13496094 -5.4519043 0.09179688 C-3.63561776 0.0237969 -1.81755902 0 0 0 Z " fill="#4B4E56" transform="translate(468,748)"/>
<path d="M0 0 C0.66 0 1.32 0 2 0 C4.99481865 4.58031088 4.99481865 4.58031088 6 7 C5.25 9.4375 5.25 9.4375 4 11 C3.54625 10.360625 3.0925 9.72125 2.625 9.0625 C1.16078274 6.90297594 1.16078274 6.90297594 -1 6 C-0.67 4.02 -0.34 2.04 0 0 Z " fill="#32343D" transform="translate(497,722)"/>
<path d="M0 0 C2.35953094 2.35953094 2.49141413 3.77895617 3 7 C1.02 7.33 -0.96 7.66 -3 8 C-3.66 6.35 -4.32 4.7 -5 3 C-4.01 3 -3.02 3 -2 3 C-1.67 2.34 -1.34 1.68 -1 1 C-0.67 0.67 -0.34 0.34 0 0 Z " fill="#353640" transform="translate(586,732)"/>
<path d="M0 0 C2.912575 0.08566397 4.56798024 0.57910955 6.66796875 2.625 C8.16091772 4.38391375 9.60436262 6.16313019 11 8 C10.34 8.66 9.68 9.32 9 10 C7.49702124 8.52386015 5.99768715 7.04400843 4.5 5.5625 C3.6646875 4.73878906 2.829375 3.91507813 1.96875 3.06640625 C0 1 0 1 0 0 Z " fill="#383A43" transform="translate(1100,145)"/>
<path d="M0 0 C0 0.99 0 1.98 0 3 C-1.76586761 3.5576424 -3.53795256 4.09562787 -5.3125 4.625 C-6.29863281 4.92664063 -7.28476562 5.22828125 -8.30078125 5.5390625 C-11 6 -11 6 -14 4 C-12.0429132 3.32968281 -10.08428887 2.66385317 -8.125 2 C-7.03445313 1.62875 -5.94390625 1.2575 -4.8203125 0.875 C-2 0 -2 0 0 0 Z " fill="#2E313B" transform="translate(820,541)"/>
<path d="M0 0 C1.98 0 3.96 0 6 0 C5.608125 0.639375 5.21625 1.27875 4.8125 1.9375 C3.61251824 6.46050817 5.28630825 9.771051 7 14 C4.08773121 12.5438656 3.68157936 10.50039336 2.375 7.5625 C1.70597656 6.07943359 1.70597656 6.07943359 1.0234375 4.56640625 C0 2 0 2 0 0 Z " fill="#22232C" transform="translate(567,727)"/>
<path d="M0 0 C0.33 0 0.66 0 1 0 C1.1567564 7.71589817 0.67453101 15.31516461 0 23 C-0.33 23 -0.66 23 -1 23 C-1.19390729 20.68802845 -1.37996367 18.3753971 -1.5625 16.0625 C-1.71912109 14.13083984 -1.71912109 14.13083984 -1.87890625 12.16015625 C-1.91886719 11.11730469 -1.95882813 10.07445312 -2 9 C-1.67 8.67 -1.34 8.34 -1 8 C-0.76924918 6.65252916 -0.58846937 5.29622435 -0.4375 3.9375 C-0.293125 2.638125 -0.14875 1.33875 0 0 Z " fill="#55555D" transform="translate(1176,922)"/>
<path d="M0 0 C0.99 0.99 1.98 1.98 3 3 C2.05066101 6.35433109 1.10251165 9.69246505 0 13 C-0.66 13 -1.32 13 -2 13 C-1.48041715 8.62065881 -0.94324258 4.31196609 0 0 Z " fill="#383A45" transform="translate(86,255)"/>
<path d="M0 0 C2.15377564 2.62198774 3.40072174 4.64404172 4 8 C1.69 8.33 -0.62 8.66 -3 9 C-2.01 8.67 -1.02 8.34 0 8 C-0.66 6.02 -1.32 4.04 -2 2 C-1.34 2 -0.68 2 0 2 C0 1.34 0 0.68 0 0 Z " fill="#DBDCDF" transform="translate(579,732)"/>
<path d="M0 0 C0.66 0.99 1.32 1.98 2 3 C0.93283928 4.20205464 -0.15438337 5.38632333 -1.25 6.5625 C-2.15492188 7.55443359 -2.15492188 7.55443359 -3.078125 8.56640625 C-5 10 -5 10 -7.234375 9.71484375 C-7.81703125 9.47894531 -8.3996875 9.24304688 -9 9 C-8.43410156 8.51789062 -7.86820313 8.03578125 -7.28515625 7.5390625 C-6.55167969 6.90742187 -5.81820312 6.27578125 -5.0625 5.625 C-4.33160156 4.99851562 -3.60070312 4.37203125 -2.84765625 3.7265625 C-0.91619094 2.12252286 -0.91619094 2.12252286 0 0 Z " fill="#2D2B36" transform="translate(921,841)"/>
<path d="M0 0 C0.71484375 1.765625 0.71484375 1.765625 1 4 C-0.43359375 5.921875 -0.43359375 5.921875 -2.4375 7.75 C-3.09621094 8.36359375 -3.75492188 8.9771875 -4.43359375 9.609375 C-4.95050781 10.06828125 -5.46742188 10.5271875 -6 11 C-6.99 10.67 -7.98 10.34 -9 10 C-8.2575 9.278125 -7.515 8.55625 -6.75 7.8125 C-4.30709485 5.31407427 -2.1318953 2.76356798 0 0 Z " fill="#E0E0E2" transform="translate(543,772)"/>
<path d="M0 0 C0.33 0 0.66 0 1 0 C1.84681133 5.08086796 2.09038099 9.84828377 2 15 C1.71125 14.38125 1.4225 13.7625 1.125 13.125 C0.06279958 10.86674235 0.06279958 10.86674235 -2 9 C-2.38079379 5.38245897 -1.84651134 3.11598788 0 0 Z " fill="#64656B" transform="translate(315,651)"/>
<path d="M0 0 C11.52164009 0.96355353 11.52164009 0.96355353 17 2 C17 2.33 17 2.66 17 3 C14.36 3.33 11.72 3.66 9 4 C9 3.34 9 2.68 9 2 C7.02 2.33 5.04 2.66 3 3 C3 2.34 3 1.68 3 1 C2.01 0.67 1.02 0.34 0 0 Z " fill="#5C5E65" transform="translate(956,74)"/>
<path d="M0 0 C-3.22741144 2.85856441 -5.60370982 4.76236269 -10 5 C-10.66 4.34 -11.32 3.68 -12 3 C-10.3789897 2.30314502 -8.75303934 1.61777139 -7.125 0.9375 C-6.22007812 0.55464844 -5.31515625 0.17179687 -4.3828125 -0.22265625 C-2 -1 -2 -1 0 0 Z " fill="#D5D5D7" transform="translate(1028,1158)"/>
<path d="M0 0 C5.94 1.485 5.94 1.485 12 3 C8 5 8 5 5.859375 4.5390625 C5.16328125 4.23742187 4.4671875 3.93578125 3.75 3.625 C3.04359375 3.32851563 2.3371875 3.03203125 1.609375 2.7265625 C1.07828125 2.48679687 0.5471875 2.24703125 0 2 C0 1.34 0 0.68 0 0 Z " fill="#34353F" transform="translate(559,922)"/>
<path d="M0 0 C1.4606285 2.64738916 2 3.89448334 2 7 C1.01 7 0.02 7 -1 7 C-1.33 8.98 -1.66 10.96 -2 13 C-3.18771723 9.57056481 -2.80226223 7.62215325 -1.5625 4.25 C-1.27503906 3.45078125 -0.98757812 2.6515625 -0.69140625 1.828125 C-0.46324219 1.22484375 -0.23507813 0.6215625 0 0 Z " fill="#595B63" transform="translate(90,242)"/>
<path d="M0 0 C1.10336858 3.31010574 1.13531135 5.6813976 0 9 C-2.0625 10.3125 -2.0625 10.3125 -4 11 C-2.95902388 7.13351728 -1.96301592 3.50538557 0 0 Z " fill="#DDDDDF" transform="translate(1161,1011)"/>
<path d="M0 0 C0.99 0.66 1.98 1.32 3 2 C2.34 3.98 1.68 5.96 1 8 C-1 6.1875 -1 6.1875 -3 4 C-3 3.01 -3 2.02 -3 1 C-2.01 0.67 -1.02 0.34 0 0 Z " fill="#30323D" transform="translate(521,774)"/>
<path d="M0 0 C0 0.66 0 1.32 0 2 C1.65 1.67 3.3 1.34 5 1 C5 1.66 5 2.32 5 3 C5.99 3.33 6.98 3.66 8 4 C-2.55808656 3.03644647 -2.55808656 3.03644647 -7 2 C-7 1.67 -7 1.34 -7 1 C-2.25 0 -2.25 0 0 0 Z " fill="#585A61" transform="translate(280,1171)"/>
<path d="M0 0 C-0.50603992 2.16874252 -0.99983813 3.99967627 -2 6 C-2.99 5.67 -3.98 5.34 -5 5 C-5 3.68 -5 2.36 -5 1 C-3 0 -3 0 0 0 Z " fill="#35363F" transform="translate(583,725)"/>
<path d="M0 0 C0 0.99 0 1.98 0 3 C-3.72430357 3.69289369 -7.21083746 4.11144596 -11 4 C-7.32740617 1.55160412 -4.45351799 0 0 0 Z " fill="#3D3F48" transform="translate(699,581)"/>
<path d="M0 0 C0.66 0 1.32 0 2 0 C2 0.66 2 1.32 2 2 C1.34 2 0.68 2 0 2 C0.103125 2.7425 0.20625 3.485 0.3125 4.25 C0 7 0 7 -2.5 9.3125 C-3.7375 10.1478125 -3.7375 10.1478125 -5 11 C-3.78065514 6.96678237 -2.44045073 3.45730521 0 0 Z " fill="#E7E7E8" transform="translate(549,761)"/>
<path d="M0 0 C3.63 0 7.26 0 11 0 C11 0.99 11 1.98 11 3 C9.741875 2.87625 8.48375 2.7525 7.1875 2.625 C6.12595703 2.52058594 6.12595703 2.52058594 5.04296875 2.4140625 C3 2 3 2 0 0 Z " fill="#CFCED0" transform="translate(530,730)"/>
<path d="M0 0 C-1.38009621 3.33523252 -2.84950652 5.18607951 -6 7 C-6.99 6.67 -7.98 6.34 -9 6 C-7.8803014 4.99406757 -6.7540588 3.9954151 -5.625 3 C-4.68527344 2.1646875 -4.68527344 2.1646875 -3.7265625 1.3125 C-2 0 -2 0 0 0 Z " fill="#EAEAEB" transform="translate(811,352)"/>
<path d="M0 0 C3.99996286 1.33332095 4.83782337 3.4957827 7 7 C6.34 7.66 5.68 8.32 5 9 C4.54625 8.195625 4.0925 7.39125 3.625 6.5625 C2.25274335 3.91143428 2.25274335 3.91143428 0 3 C0 2.01 0 1.02 0 0 Z " fill="#32343C" transform="translate(1117,161)"/>
<path d="M0 0 C-0.5625 1.9375 -0.5625 1.9375 -2 4 C-5.625 4.75 -5.625 4.75 -9 5 C-2.87096774 0 -2.87096774 0 0 0 Z " fill="#393C45" transform="translate(208,104)"/>
<path d="M0 0 C0.33 0 0.66 0 1 0 C1.33 2.64 1.66 5.28 2 8 C1.34 8 0.68 8 0 8 C0 9.65 0 11.3 0 13 C-0.33 13 -0.66 13 -1 13 C-1.07654536 8.48382401 -1.10228696 4.40914783 0 0 Z " fill="#5E434E" transform="translate(942,689)"/>
<path d="M0 0 C0.33 0 0.66 0 1 0 C1.28571429 8.57142857 1.28571429 8.57142857 -1 12 C-1.92470553 7.28400182 -2.22923777 4.32734391 0 0 Z " fill="#BC7B7D" transform="translate(949,624)"/>
<path d="M0 0 C0 0.99 0 1.98 0 3 C-2.3125 3.625 -2.3125 3.625 -5 4 C-5.99 3.34 -6.98 2.68 -8 2 C-2.25 0 -2.25 0 0 0 Z " fill="#343741" transform="translate(765,559)"/>
<path d="M0 0 C2 3.75 2 3.75 2 6 C1.01 6 0.02 6 -1 6 C-1.33 7.32 -1.66 8.64 -2 10 C-3 8 -3 8 -2.44140625 6.0546875 C-2.15136719 5.33539063 -1.86132812 4.61609375 -1.5625 3.875 C-1.27503906 3.15054688 -0.98757812 2.42609375 -0.69140625 1.6796875 C-0.46324219 1.12539062 -0.23507813 0.57109375 0 0 Z " fill="#5A5C64" transform="translate(94,231)"/>
<path d="M0 0 C0.33 0 0.66 0 1 0 C2.11658501 4.68965706 1.80619523 7.53763531 0 12 C-0.33 12 -0.66 12 -1 12 C-1.14285714 3.42857143 -1.14285714 3.42857143 0 0 Z " fill="#61464F" transform="translate(935,749)"/>
<path d="M0 0 C1.4606285 2.64738916 2 3.89448334 2 7 C1.34 7 0.68 7 0 7 C-0.33 8.32 -0.66 9.64 -1 11 C-1.14285714 3.57142857 -1.14285714 3.57142857 0 0 Z " fill="#5C454D" transform="translate(937,732)"/>
<path d="M0 0 C0.66 0.33 1.32 0.66 2 1 C0.68 3.64 -0.64 6.28 -2 9 C-2.33 9 -2.66 9 -3 9 C-3.36923077 3.46153846 -3.36923077 3.46153846 -1.5 1.125 C-1.005 0.75375 -0.51 0.3825 0 0 Z " fill="#FBEBEC" transform="translate(688,734)"/>
<path d="M0 0 C-3.9813783 1.3271261 -7.85045227 1.06915913 -12 1 C-7.62136392 -1.91909072 -4.60643295 -2.90034667 0 0 Z " fill="#D18888" transform="translate(909,531)"/>
</svg>
